HIERARCHY
ROOT Hips
{
  OFFSET 5.72205e-005 65.662 3.42586
  CHANNELS 6 Xposition Yposition Zposition Zrotation Xrotation Yrotation
  JOINT Chest
  {
    OFFSET 0 8.7983 -4.7612
    CHANNELS 6 Xposition Yposition Zposition Zrotation Xrotation Yrotation
    JOINT Chest2
    {
      OFFSET 0 8.0291 0.4195
      CHANNELS 6 Xposition Yposition Zposition Zrotation Xrotation Yrotation
      JOINT Chest3
      {
        OFFSET 0 9.9351 -2.2114
        CHANNELS 6 Xposition Yposition Zposition Zrotation Xrotation Yrotation
        JOINT Neck
        {
          OFFSET 0 22.3885 -0.4656
          CHANNELS 6 Xposition Yposition Zposition Zrotation Xrotation Yrotation
          JOINT Head
          {
            OFFSET -0.0001 12.643 3.4389
            CHANNELS 6 Xposition Yposition Zposition Zrotation Xrotation Yrotation
            End Site
            {
              OFFSET 0.0001 17.6655 0.5274
            }
          }
        }
        JOINT LeftCollar
        {
          OFFSET 2.2603 21.606 7.4023
          CHANNELS 6 Xposition Yposition Zposition Zrotation Xrotation Yrotation
          JOINT LeftShoulder
          {
            OFFSET 13.5163 -1.1332 -5.0146
            CHANNELS 6 Xposition Yposition Zposition Zrotation Xrotation Yrotation
            JOINT LeftElbow
            {
              OFFSET -0.0995 -28.05 -0.2431
              CHANNELS 6 Xposition Yposition Zposition Zrotation Xrotation Yrotation
              JOINT LeftWrist
              {
                OFFSET 0.0679 -23.3996 -0.1402
                CHANNELS 6 Xposition Yposition Zposition Zrotation Xrotation Yrotation
                JOINT LeftFinger1
                {
                  OFFSET 0.7932 -9.069 2.5189
                  CHANNELS 6 Xposition Yposition Zposition Zrotation Xrotation Yrotation
                  JOINT LeftFinger11
                  {
                    OFFSET -0.8272 -3.3923 0.5977
                    CHANNELS 6 Xposition Yposition Zposition Zrotation Xrotation Yrotation
                    JOINT LeftFinger12
                    {
                      OFFSET -0.5649 -2.3158 0.4082
                      CHANNELS 6 Xposition Yposition Zposition Zrotation Xrotation Yrotation
                      End Site
                      {
                        OFFSET -0.4919 -1.6479 0.2673
                      }
                    }
                  }
                }
                JOINT LeftFinger2
                {
                  OFFSET 0.9159 -9.2044 0.2193
                  CHANNELS 6 Xposition Yposition Zposition Zrotation Xrotation Yrotation
                  JOINT LeftFinger21
                  {
                    OFFSET 0.0117 -4.1944 -0.0248
                    CHANNELS 6 Xposition Yposition Zposition Zrotation Xrotation Yrotation
                    JOINT LeftFinger22
                    {
                      OFFSET 0.0071 -2.3249 -0.0142
                      CHANNELS 6 Xposition Yposition Zposition Zrotation Xrotation Yrotation
                      End Site
                      {
                        OFFSET -0.1475 -2.0882 0.0028
                      }
                    }
                  }
                }
                JOINT LeftFinger3
                {
                  OFFSET 0.6113 -8.7231 -2.0637
                  CHANNELS 6 Xposition Yposition Zposition Zrotation Xrotation Yrotation
                  JOINT LeftFinger31
                  {
                    OFFSET -0.1927 -3.8059 -0.2383
                    CHANNELS 6 Xposition Yposition Zposition Zrotation Xrotation Yrotation
                    JOINT LeftFinger32
                    {
                      OFFSET -0.1091 -2.1688 -0.1362
                      CHANNELS 6 Xposition Yposition Zposition Zrotation Xrotation Yrotation
                      End Site
                      {
                        OFFSET -0.2358 -1.9176 -0.0906
                      }
                    }
                  }
                }
                JOINT LeftFinger4
                {
                  OFFSET -0.6151 -8.0947 -3.5641
                  CHANNELS 6 Xposition Yposition Zposition Zrotation Xrotation Yrotation
                  JOINT LeftFinger41
                  {
                    OFFSET -0.4882 -2.341 -0.6462
                    CHANNELS 6 Xposition Yposition Zposition Zrotation Xrotation Yrotation
                    JOINT LeftFinger42
                    {
                      OFFSET -0.3575 -1.7167 -0.4742
                      CHANNELS 6 Xposition Yposition Zposition Zrotation Xrotation Yrotation
                      End Site
                      {
                        OFFSET -0.4187 -1.5237 -0.3496
                      }
                    }
                  }
                }
                JOINT LeftFinger0
                {
                  OFFSET -1.42 -1.8761 1.4223
                  CHANNELS 6 Xposition Yposition Zposition Zrotation Xrotation Yrotation
                  JOINT LeftFinger01
                  {
                    OFFSET -1.1471 -3.4929 2.6334
                    CHANNELS 6 Xposition Yposition Zposition Zrotation Xrotation Yrotation
                    JOINT LeftFinger02
                    {
                      OFFSET -0.823 -2.3 1.6571
                      CHANNELS 6 Xposition Yposition Zposition Zrotation Xrotation Yrotation
                      End Site
                      {
                        OFFSET -0.5822 -1.6914 1.1582
                      }
                    }
                  }
                }
              }
            }
          }
        }
        JOINT RightCollar
        {
          OFFSET -2.2603 21.606 7.4023
          CHANNELS 6 Xposition Yposition Zposition Zrotation Xrotation Yrotation
          JOINT RightShoulder
          {
            OFFSET -13.5187 -1.1334 -5.0155
            CHANNELS 6 Xposition Yposition Zposition Zrotation Xrotation Yrotation
            JOINT RightElbow
            {
              OFFSET 0.0994 -28.0499 -0.2431
              CHANNELS 6 Xposition Yposition Zposition Zrotation Xrotation Yrotation
              JOINT RightWrist
              {
                OFFSET -0.0679 -23.3996 -0.1402
                CHANNELS 6 Xposition Yposition Zposition Zrotation Xrotation Yrotation
                JOINT RightFinger1
                {
                  OFFSET -0.7932 -9.0691 2.5189
                  CHANNELS 6 Xposition Yposition Zposition Zrotation Xrotation Yrotation
                  JOINT RightFinger11
                  {
                    OFFSET 0.8272 -3.3923 0.5977
                    CHANNELS 6 Xposition Yposition Zposition Zrotation Xrotation Yrotation
                    JOINT RightFinger12
                    {
                      OFFSET 0.565 -2.3158 0.4082
                      CHANNELS 6 Xposition Yposition Zposition Zrotation Xrotation Yrotation
                      End Site
                      {
                        OFFSET 0.4919 -1.6479 0.2673
                      }
                    }
                  }
                }
                JOINT RightFinger2
                {
                  OFFSET -0.916 -9.2044 0.2193
                  CHANNELS 6 Xposition Yposition Zposition Zrotation Xrotation Yrotation
                  JOINT RightFinger21
                  {
                    OFFSET -0.0117 -4.1944 -0.0248
                    CHANNELS 6 Xposition Yposition Zposition Zrotation Xrotation Yrotation
                    JOINT RightFinger22
                    {
                      OFFSET -0.0071 -2.3249 -0.0142
                      CHANNELS 6 Xposition Yposition Zposition Zrotation Xrotation Yrotation
                      End Site
                      {
                        OFFSET 0.1475 -2.0882 0.0028
                      }
                    }
                  }
                }
                JOINT RightFinger3
                {
                  OFFSET -0.6113 -8.7231 -2.0637
                  CHANNELS 6 Xposition Yposition Zposition Zrotation Xrotation Yrotation
                  JOINT RightFinger31
                  {
                    OFFSET 0.1927 -3.8059 -0.2383
                    CHANNELS 6 Xposition Yposition Zposition Zrotation Xrotation Yrotation
                    JOINT RightFinger32
                    {
                      OFFSET 0.1091 -2.1688 -0.1362
                      CHANNELS 6 Xposition Yposition Zposition Zrotation Xrotation Yrotation
                      End Site
                      {
                        OFFSET 0.2358 -1.9176 -0.0906
                      }
                    }
                  }
                }
                JOINT RightFinger4
                {
                  OFFSET 0.6151 -8.0947 -3.564
                  CHANNELS 6 Xposition Yposition Zposition Zrotation Xrotation Yrotation
                  JOINT RightFinger41
                  {
                    OFFSET 0.4882 -2.341 -0.6462
                    CHANNELS 6 Xposition Yposition Zposition Zrotation Xrotation Yrotation
                    JOINT RightFinger42
                    {
                      OFFSET 0.3574 -1.7166 -0.4742
                      CHANNELS 6 Xposition Yposition Zposition Zrotation Xrotation Yrotation
                      End Site
                      {
                        OFFSET 0.4187 -1.5237 -0.3496
                      }
                    }
                  }
                }
                JOINT RightFinger0
                {
                  OFFSET 1.4199 -1.8761 1.4221
                  CHANNELS 6 Xposition Yposition Zposition Zrotation Xrotation Yrotation
                  JOINT RightFinger01
                  {
                    OFFSET 1.1472 -3.4929 2.6336
                    CHANNELS 6 Xposition Yposition Zposition Zrotation Xrotation Yrotation
                    JOINT RightFinger02
                    {
                      OFFSET 0.8229 -2.3 1.6571
                      CHANNELS 6 Xposition Yposition Zposition Zrotation Xrotation Yrotation
                      End Site
                      {
                        OFFSET 0.5822 -1.6914 1.1582
                      }
                    }
                  }
                }
              }
            }
          }
        }
      }
    }
  }
  JOINT RightHip
  {
    OFFSET -9.412 3.9771 -0.7758
    CHANNELS 6 Xposition Yposition Zposition Zrotation Xrotation Yrotation
    JOINT RightKnee
    {
      OFFSET -0.7531 -40.938 0
      CHANNELS 6 Xposition Yposition Zposition Zrotation Xrotation Yrotation
      JOINT RightAnkle
      {
        OFFSET 0 -40.1986 0
        CHANNELS 6 Xposition Yposition Zposition Zrotation Xrotation Yrotation
        JOINT RightToe
        {
          OFFSET 0 -4.4182 9.239
          CHANNELS 6 Xposition Yposition Zposition Zrotation Xrotation Yrotation
          End Site
          {
            OFFSET 0 0 6.1981
          }
        }
      }
    }
  }
  JOINT LeftHip
  {
    OFFSET 9.4119 3.9773 -0.7758
    CHANNELS 6 Xposition Yposition Zposition Zrotation Xrotation Yrotation
    JOINT LeftKnee
    {
      OFFSET 0.7532 -40.9383 0
      CHANNELS 6 Xposition Yposition Zposition Zrotation Xrotation Yrotation
      JOINT LeftAnkle
      {
        OFFSET 0 -40.1986 0
        CHANNELS 6 Xposition Yposition Zposition Zrotation Xrotation Yrotation
        JOINT LeftToe
        {
          OFFSET 0 -4.4182 9.239
          CHANNELS 6 Xposition Yposition Zposition Zrotation Xrotation Yrotation
          End Site
          {
            OFFSET 0 0 6.1981
          }
        }
      }
    }
  }
}
MOTION
Frames:	4
Frame Time:	0.0333333
5.72205e-005 65.662 3.42586 0 0 -0 0 8.7983 -4.7612 0 0 -0 0 8.0291 0.4195 0 0 -0 0 9.9351 -2.2114 0 0 -0 0 22.3885 -0.4656 0 0 -0 -0.0001 12.643 3.4389 0 0 -0 2.2603 21.606 7.4023 0 0 -12.5014 13.5163 -1.1332 -5.0146 88.1196 14.2451 10.6914 -0.0995 -28.05 -0.2431 -0.00160068 -0.00239207 0.000740045 0.0679 -23.3996 -0.1402 -8.4365e-005 7.00714e-005 -9.52055e-007 0.7932 -9.069 2.5189 9.93923e-017 -1.98785e-016 -1.59028e-015 -0.8272 -3.3923 0.5977 9.93923e-017 -5.96354e-016 -1.59028e-015 -0.5649 -2.3158 0.4082 -9.93923e-017 -5.96354e-016 -1.59028e-015 0.9159 -9.2044 0.2193 9.93923e-017 -1.98785e-016 -1.59028e-015 0.0117 -4.1944 -0.0248 -0.0128176 0.00232552 8.52707e-005 0.0071 -2.3249 -0.0142 9.93923e-017 5.96354e-016 -0 0.6113 -8.7231 -2.0637 9.93923e-017 -1.98785e-016 -1.59028e-015 -0.1927 -3.8059 -0.2383 -0.0160551 0.00299681 0.000857156 -0.1091 -2.1688 -0.1362 -2.48481e-016 0 3.18055e-015 -0.6151 -8.0947 -3.5641 9.93923e-017 -1.98785e-016 -1.59028e-015 -0.4882 -2.341 -0.6462 -0.0125865 0.0031206 0.00282719 -0.3575 -1.7167 -0.4742 0 1.98785e-016 -0 -1.42 -1.8761 1.4223 9.93923e-017 -1.98785e-016 -1.59028e-015 -1.1471 -3.4929 2.6334 9.93923e-017 -5.96354e-016 -1.59028e-015 -0.823 -2.3 1.6571 -9.93923e-017 -5.96354e-016 -1.59028e-015 -2.2603 21.606 7.4023 -0.865644 0.16582 7.03859 -13.5187 -1.1334 -5.0155 -88.0329 10.2057 -10.5567 0.0994 -28.0499 -0.2431 0.0015593 -0.00248883 -0.000788628 -0.0679 -23.3996 -0.1402 7.87605e-005 4.10553e-005 1.24965e-005 -0.7932 -9.0691 2.5189 -3.97569e-016 -7.95139e-016 3.18055e-015 0.8272 -3.3923 0.5977 -1.98785e-016 -3.97569e-016 3.18055e-015 0.565 -2.3158 0.4082 -1.98785e-016 0 3.18055e-015 -0.916 -9.2044 0.2193 -3.97569e-016 -7.95139e-016 3.18055e-015 -0.0117 -4.1944 -0.0248 0.0129473 0.00231697 -8.70038e-005 -0.0071 -2.3249 -0.0142 9.93923e-017 -7.95139e-016 1.59028e-015 -0.6113 -8.7231 -2.0637 -3.97569e-016 -7.95139e-016 3.18055e-015 0.1927 -3.8059 -0.2383 0.0163314 0.00303369 -0.000872333 0.1091 -2.1688 -0.1362 3.97569e-016 7.95139e-016 -3.18055e-015 0.6151 -8.0947 -3.564 -3.97569e-016 -7.95139e-016 3.18055e-015 0.4882 -2.341 -0.6462 0.0145763 0.00367772 -0.00326275 0.3574 -1.7166 -0.4742 9.93923e-017 -3.97569e-016 -0 1.4199 -1.8761 1.4221 -3.97569e-016 -7.95139e-016 3.18055e-015 1.1472 -3.4929 2.6336 -1.98785e-016 -3.97569e-016 3.18055e-015 0.8229 -2.3 1.6571 -1.98785e-016 0 3.18055e-015 -9.412 3.9771 -0.7758 3.42482 1.32465 -0.0626183 -0.7531 -40.938 0 0.000117508 0.717283 0.000978199 0 -40.1986 0 -3.4257 -2.04197 -0.0604716 8.88178e-016 -4.4182 9.239 6.47761e-025 0 -0 9.4119 3.9773 -0.7758 -3.42483 1.34017 0.0627307 0.7532 -40.9383 -2.22045e-016 -0.000193936 0.682302 -0.0013703 -8.88179e-016 -40.1986 0 3.42574 -2.02253 0.0595886 -8.88178e-016 -4.4182 9.239 -8.45714e-024 0 -7.40531e-025 
-4.90764e-005 66.1029 3.44079 -4.91183e-008 4.80796e-008 1.62598e-010 0 8.7983 -4.7612 -0.347401 0.541691 -0.00473081 -5.55112e-017 8.0291 0.4195 -0.694809 1.08341 -0.00617721 2.22045e-016 9.9351 -2.2114 -0.694809 1.08341 -0.00617721 0 22.3885 -0.4656 -5.07903 9.96167 -10.1222 -0.0001 12.643 3.4389 -9.31466 -14.8131 -2.40405 2.2603 21.606 7.4023 1.56129 -2.40749 -53.8298 13.5163 -1.1332 -5.0146 94.7829 -18.1136 42.1017 -0.0995 -28.05 -0.2431 7.76961 -49.0857 1.72217 0.0679 -23.3996 -0.1402 -2.03102 -38.0183 56.9273 0.7932 -9.069 2.5189 -2.46299e-006 -4.08926e-006 8.86181e-007 -0.8272 -3.3923 0.5977 -1.59028e-015 -1.59028e-015 -3.18055e-015 -0.5649 -2.3158 0.4082 -3.03117e-006 -6.5909e-007 7.13138e-007 0.9159 -9.2044 0.2193 -2.46299e-006 -4.08926e-006 8.86181e-007 0.0117 -4.1944 -0.0248 -0.0128775 0.00233788 9.06006e-005 0.0071 -2.3249 -0.0142 3.18055e-015 0 -0 0.6113 -8.7231 -2.0637 -2.46299e-006 -4.08926e-006 8.86181e-007 -0.1927 -3.8059 -0.2383 -0.0159625 0.00298131 0.000856221 -0.1091 -2.1688 -0.1362 -1.59028e-015 -2.71881e-006 -3.18055e-015 -0.6151 -8.0947 -3.5641 -2.46299e-006 -4.08926e-006 8.86181e-007 -0.4882 -2.341 -0.6462 -0.012567 0.0031145 0.00282642 -0.3575 -1.7167 -0.4742 3.18055e-015 -3.18055e-015 9.54166e-015 -1.42 -1.8761 1.4223 -2.46299e-006 -4.08926e-006 8.86181e-007 -1.1471 -3.4929 2.6334 -1.59028e-015 -1.59028e-015 -3.18055e-015 -0.823 -2.3 1.6571 -3.03117e-006 -6.5909e-007 7.13138e-007 -2.2603 21.606 7.4023 -2.32506 -2.85552 48.3271 -13.5187 -1.1334 -5.0155 -94.1009 -21.921 -42.7358 0.0994 -28.0499 -0.2431 -8.54105 -49.0138 -3.14082 -0.0679 -23.3996 -0.1402 3.64651 -37.754 -56.4768 -0.7932 -9.0691 2.5189 2.0574e-006 4.34386e-006 2.04053e-006 0.8272 -3.3923 0.5977 -3.18055e-015 -3.18055e-015 9.54166e-015 0.565 -2.3158 0.4082 2.0574e-006 -2.19764e-007 2.04053e-006 -0.916 -9.2044 0.2193 2.0574e-006 4.34386e-006 2.04053e-006 -0.0117 -4.1944 -0.0248 0.0129969 0.00232854 -8.50592e-005 -0.0071 -2.3249 -0.0142 -4.77083e-015 -7.95139e-015 -0 -0.6113 -8.7231 -2.0637 2.0574e-006 4.34386e-006 2.04053e-006 0.1927 -3.8059 -0.2383 0.0163367 0.003041 -0.000876827 0.1091 -2.1688 -0.1362 2.05678e-006 -2.20508e-007 2.04066e-006 0.6151 -8.0947 -3.564 2.0574e-006 4.34386e-006 2.04053e-006 0.4882 -2.341 -0.6462 0.0145614 0.00367405 -0.00326599 0.3574 -1.7166 -0.4742 -7.33629e-006 4.05101e-007 2.21724e-006 1.4199 -1.8761 1.4221 2.0574e-006 4.34386e-006 2.04053e-006 1.1472 -3.4929 2.6336 -3.18055e-015 -3.18055e-015 9.54166e-015 0.8229 -2.3 1.6571 2.0574e-006 -2.19764e-007 2.04053e-006 -9.412 3.9771 -0.7758 -3.14416 -3.88928 -0.642293 -0.7531 -40.938 -8.88179e-016 1.89868 11.5545 -0.297579 -1.77636e-015 -40.1986 2.22045e-016 -3.7817 -0.902446 2.89555 0 -4.4182 9.239 8.69829e-007 -4.65426e-007 -1.08082e-007 9.4119 3.9773 -0.7758 3.14026 -3.89117 0.638575 0.7532 -40.9383 0 -1.90185 11.5567 0.294425 1.77636e-015 -40.1986 -8.88179e-016 3.7787 -0.902414 -2.89914 1.77636e-015 -4.4182 9.239 1.98785e-016 -2.38542e-015 -0 
-4.90764e-005 66.1029 3.44079 -4.91183e-008 4.80796e-008 1.62598e-010 0 8.7983 -4.7612 -0.347401 0.541691 -0.00473081 -5.55112e-017 8.0291 0.4195 -0.694809 1.08341 -0.00617721 2.22045e-016 9.9351 -2.2114 -0.694809 1.08341 -0.00617721 0 22.3885 -0.4656 -5.25525 9.95892 -10.0917 -0.0001 12.643 3.4389 -9.31464 -14.8131 -2.67816 2.2603 21.606 7.4023 1.56129 -2.40749 -53.8298 13.5163 -1.1332 -5.0146 94.7829 -18.1136 42.1017 -0.0995 -28.05 -0.2431 7.76961 -49.0857 1.72217 0.0679 -23.3996 -0.1402 -2.03102 -38.0183 56.9273 0.7932 -9.069 2.5189 -2.46299e-006 -4.08926e-006 8.86181e-007 -0.8272 -3.3923 0.5977 -1.59028e-015 -1.59028e-015 -3.18055e-015 -0.5649 -2.3158 0.4082 -3.03117e-006 -6.5909e-007 7.13138e-007 0.9159 -9.2044 0.2193 -2.46299e-006 -4.08926e-006 8.86181e-007 0.0117 -4.1944 -0.0248 -0.0128775 0.00233788 9.06006e-005 0.0071 -2.3249 -0.0142 3.18055e-015 0 -0 0.6113 -8.7231 -2.0637 -2.46299e-006 -4.08926e-006 8.86181e-007 -0.1927 -3.8059 -0.2383 -0.0159625 0.00298131 0.000856221 -0.1091 -2.1688 -0.1362 -1.59028e-015 -2.71881e-006 -3.18055e-015 -0.6151 -8.0947 -3.5641 -2.46299e-006 -4.08926e-006 8.86181e-007 -0.4882 -2.341 -0.6462 -0.012567 0.0031145 0.00282642 -0.3575 -1.7167 -0.4742 3.18055e-015 -3.18055e-015 9.54166e-015 -1.42 -1.8761 1.4223 -2.46299e-006 -4.08926e-006 8.86181e-007 -1.1471 -3.4929 2.6334 -1.59028e-015 -1.59028e-015 -3.18055e-015 -0.823 -2.3 1.6571 -3.03117e-006 -6.5909e-007 7.13138e-007 -2.2603 21.606 7.4023 -2.32506 -2.85552 48.3271 -13.5187 -1.1334 -5.0155 -94.1009 -21.921 -42.7358 0.0994 -28.0499 -0.2431 -8.54107 -49.0138 -3.14083 -0.0679 -23.3996 -0.1402 3.64653 -37.754 -56.4768 -0.7932 -9.0691 2.5189 -3.34441e-006 -4.23962e-006 -3.88073e-006 0.8272 -3.3923 0.5977 -1.90833e-014 6.36111e-015 6.36111e-015 0.565 -2.3158 0.4082 -7.95139e-015 4.77083e-015 9.54166e-015 -0.916 -9.2044 0.2193 -3.34441e-006 -4.23962e-006 -3.88073e-006 -0.0117 -4.1944 -0.0248 0.0129978 0.0023276 -8.7706e-005 -0.0071 -2.3249 -0.0142 2.05691e-006 -1.57721e-006 2.04061e-006 -0.6113 -8.7231 -2.0637 -3.34441e-006 -4.23962e-006 -3.88073e-006 0.1927 -3.8059 -0.2383 0.0163384 0.00303762 -0.000874888 0.1091 -2.1688 -0.1362 -1.59028e-015 1.07558e-007 3.18055e-015 0.6151 -8.0947 -3.564 -3.34441e-006 -4.23962e-006 -3.88073e-006 0.4882 -2.341 -0.6462 0.0145728 0.0036825 -0.00326413 0.3574 -1.7166 -0.4742 -1.76296e-005 -8.53368e-006 5.03954e-006 1.4199 -1.8761 1.4221 -3.34441e-006 -4.23962e-006 -3.88073e-006 1.1472 -3.4929 2.6336 -1.90833e-014 6.36111e-015 6.36111e-015 0.8229 -2.3 1.6571 -7.95139e-015 4.77083e-015 9.54166e-015 -9.412 3.9771 -0.7758 -3.14416 -3.88928 -0.642293 -0.7531 -40.938 -8.88179e-016 1.89868 11.5545 -0.297579 -1.77636e-015 -40.1986 2.22045e-016 -3.7817 -0.902446 2.89555 0 -4.4182 9.239 8.69829e-007 -4.65426e-007 -1.08082e-007 9.4119 3.9773 -0.7758 3.14026 -3.89117 0.638575 0.7532 -40.9383 0 -1.90185 11.5567 0.294425 1.77636e-015 -40.1986 -8.88179e-016 3.7787 -0.902414 -2.89914 1.77636e-015 -4.4182 9.239 1.98785e-016 -2.38542e-015 -0 
-4.90794e-005 66.1029 3.44079 -4.91183e-008 4.80796e-008 2.26204e-010 0 8.7983 -4.7612 -0.347401 0.541691 -0.00473081 1.11022e-016 8.0291 0.4195 -0.694809 1.08341 -0.00617722 0 9.9351 -2.2114 -0.694809 1.08341 -0.00617721 0 22.3885 -0.4656 -5.43149 9.95609 -10.0612 -0.0001 12.643 3.4389 -9.31463 -14.8131 -2.95238 2.2603 21.606 7.4023 1.56129 -2.40749 -53.8298 13.5163 -1.1332 -5.0146 94.7829 -18.1136 42.1017 -0.0995 -28.05 -0.2431 7.76958 -49.0857 1.72218 0.0679 -23.3996 -0.1402 -2.03102 -38.0183 56.9273 0.7932 -9.069 2.5189 -1.20756e-005 8.53902e-006 1.5966e-006 -0.8272 -3.3923 0.5977 6.82081e-006 -2.64361e-006 -2.83159e-006 -0.5649 -2.3158 0.4082 -2.22359e-006 -3.69606e-006 -1.94813e-006 0.9159 -9.2044 0.2193 -1.20756e-005 8.53902e-006 1.5966e-006 0.0117 -4.1944 -0.0248 -0.0128657 0.00233066 7.02226e-005 0.0071 -2.3249 -0.0142 -9.54166e-015 0 3.18055e-015 0.6113 -8.7231 -2.0637 -1.20756e-005 8.53902e-006 1.5966e-006 -0.1927 -3.8059 -0.2383 -0.0159484 0.0029765 0.000844889 -0.1091 -2.1688 -0.1362 2.11868e-030 1.90833e-014 -6.36111e-015 -0.6151 -8.0947 -3.5641 -1.20756e-005 8.53902e-006 1.5966e-006 -0.4882 -2.341 -0.6462 -0.0125564 0.00310679 0.00281437 -0.3575 -1.7167 -0.4742 8.07288e-007 4.06025e-007 -2.66113e-006 -1.42 -1.8761 1.4223 -1.20756e-005 8.53902e-006 1.5966e-006 -1.1471 -3.4929 2.6334 6.82081e-006 -2.64361e-006 -2.83159e-006 -0.823 -2.3 1.6571 -2.22359e-006 -3.69606e-006 -1.94813e-006 -2.2603 21.606 7.4023 -2.32506 -2.85552 48.3271 -13.5187 -1.1334 -5.0155 -94.1009 -21.921 -42.7358 0.0994 -28.0499 -0.2431 -8.54104 -49.0138 -3.14081 -0.0679 -23.3996 -0.1402 3.64651 -37.7539 -56.4768 -0.7932 -9.0691 2.5189 -8.23356e-006 -3.10401e-006 4.863e-006 0.8272 -3.3923 0.5977 -3.18055e-015 1.59028e-015 -3.18055e-015 0.565 -2.3158 0.4082 1.06762e-005 7.7872e-006 -2.72231e-006 -0.916 -9.2044 0.2193 -8.23356e-006 -3.10401e-006 4.863e-006 -0.0117 -4.1944 -0.0248 0.0129981 0.00233007 -9.33941e-005 -0.0071 -2.3249 -0.0142 4.11382e-006 3.4964e-006 4.08123e-006 -0.6113 -8.7231 -2.0637 -8.23356e-006 -3.10401e-006 4.863e-006 0.1927 -3.8059 -0.2383 0.0163491 0.00304263 -0.000877605 0.1091 -2.1688 -0.1362 2.05678e-006 -2.2542e-007 2.04066e-006 0.6151 -8.0947 -3.564 -8.23356e-006 -3.10401e-006 4.863e-006 0.4882 -2.341 -0.6462 0.0148404 0.00374394 -0.00332049 0.3574 -1.7166 -0.4742 -4.37934e-006 2.15886e-007 1.6122e-006 1.4199 -1.8761 1.4221 -8.23356e-006 -3.10401e-006 4.863e-006 1.1472 -3.4929 2.6336 -3.18055e-015 1.59028e-015 -3.18055e-015 0.8229 -2.3 1.6571 1.06762e-005 7.7872e-006 -2.72231e-006 -9.412 3.9771 -0.7758 -3.14416 -3.88928 -0.642293 -0.7531 -40.938 -8.88179e-016 1.89868 11.5545 -0.297579 -1.77636e-015 -40.1986 4.44089e-016 -3.7817 -0.902446 2.89555 -1.77636e-015 -4.4182 9.239 8.69829e-007 -4.65426e-007 -1.08082e-007 9.4119 3.9773 -0.7758 3.14026 -3.89117 0.638575 0.7532 -40.9383 0 -1.90185 11.5567 0.294425 -1.77636e-015 -40.1986 -6.66134e-016 3.7787 -0.902413 -2.89914 0 -4.4182 9.239 5.96354e-016 0 -7.95139e-016 
